<?xml version="1.0" standalone="no"?>
<!DOCTYPE svg PUBLIC "-//W3C//DTD SVG 20010904//EN"
 "http://www.w3.org/TR/2001/REC-SVG-20010904/DTD/svg10.dtd">
<svg version="1.0" xmlns="http://www.w3.org/2000/svg"
 width="800.000000pt" height="600.000000pt" viewBox="0 0 800.000000 600.000000"
 preserveAspectRatio="xMidYMid meet">

<g transform="translate(0.000000,600.000000) scale(0.100000,-0.100000)"
fill="#000000" stroke="none">
<path d="M3303 5418 c6 -98 44 -227 93 -315 38 -68 42 -88 18 -79 -9 3 -33 9
-55 12 -31 5 -40 3 -45 -11 -6 -13 8 -32 51 -72 41 -38 55 -57 47 -65 -17 -17
-72 -1 -176 52 -99 50 -136 61 -136 37 0 -15 24 -52 60 -92 43 -48 44 -61 4
-105 -20 -22 -41 -40 -47 -40 -6 0 -22 14 -37 32 -23 27 -33 31 -75 31 -44 0
-52 -3 -80 -36 -18 -20 -39 -37 -48 -37 -24 0 -37 55 -37 155 0 106 -5 115
-75 123 -32 3 -52 0 -71 -13 l-26 -17 7 -126 c9 -156 2 -154 -78 24 -58 127
-101 204 -116 204 -16 0 -20 -42 -10 -94 13 -72 25 -105 85 -242 30 -67 54
-129 54 -138 0 -13 -10 -11 -56 14 -70 37 -94 39 -94 6 0 -30 35 -57 186 -141
122 -68 163 -99 150 -112 -12 -12 -215 27 -325 63 -58 19 -109 33 -114 31 -5
-1 2 -16 16 -33 31 -36 114 -82 214 -117 39 -15 93 -37 120 -51 26 -14 75 -29
108 -35 33 -6 87 -15 119 -21 64 -11 86 -23 86 -49 0 -25 -20 -41 -51 -41 -34
0 -53 -22 -44 -51 4 -12 47 -64 96 -117 87 -92 118 -132 102 -132 -12 0 -47
25 -138 99 -159 129 -295 154 -295 55 0 -12 14 -56 30 -97 36 -91 39 -117 10
-110 -31 8 -59 55 -76 130 -31 131 -34 141 -53 164 -16 20 -21 21 -35 10 -12
-10 -16 -31 -16 -77 0 -37 -5 -66 -12 -70 -15 -10 -37 22 -43 65 -12 73 -16
82 -41 92 -26 9 -26 10 -19 84 3 41 4 84 0 96 -6 18 -12 20 -46 15 -88 -14
-227 -95 -255 -147 -14 -28 -17 -30 -60 -23 -42 6 -44 5 -44 -18 0 -14 5 -50
11 -81 22 -106 -16 -110 -71 -6 -44 83 -64 170 -56 251 5 58 4 68 -9 68 -29 0
-49 -68 -49 -165 -1 -112 21 -164 119 -280 113 -134 111 -149 -15 -140 -84 6
-123 -6 -128 -42 -4 -24 0 -25 138 -40 63 -7 75 -11 79 -27 5 -31 -27 -46 -95
-46 -89 0 -109 -18 -109 -102 0 -34 7 -109 15 -166 10 -77 11 -105 2 -114 -21
-21 -59 19 -102 104 -33 67 -43 99 -49 166 -14 132 -58 155 -104 54 -19 -41
-22 -65 -22 -182 0 -133 0 -136 33 -194 35 -65 39 -86 18 -86 -7 0 -63 25
-125 55 -143 70 -208 92 -224 76 -9 -10 -5 -18 18 -37 97 -79 114 -96 120
-123 15 -70 141 -130 345 -165 34 -6 368 -36 402 -36 19 0 170 -225 230 -343
47 -90 46 -118 -3 -90 -68 39 -157 158 -198 265 -12 32 -53 47 -77 27 -12 -10
-15 -24 -10 -59 l6 -45 -32 64 c-40 77 -62 95 -84 66 -29 -39 10 -190 86 -334
l40 -76 -47 50 c-25 28 -77 92 -115 143 -38 50 -73 92 -78 92 -5 0 -19 -13
-32 -30 -25 -34 -44 -38 -53 -11 -10 32 -45 71 -65 71 -19 0 -30 -19 -30 -49
0 -27 83 -131 214 -269 64 -68 116 -131 116 -139 0 -21 -35 -12 -138 37 -112
53 -160 88 -279 202 -56 54 -106 98 -112 98 -21 0 -11 -56 17 -101 41 -63 165
-177 254 -232 41 -26 113 -60 159 -76 142 -49 144 -51 74 -81 -51 -22 -57 -42
-20 -66 22 -15 32 -15 68 -5 47 14 128 64 200 123 26 22 47 37 47 34 0 -3 -37
-45 -81 -94 -183 -196 -251 -292 -206 -292 6 0 62 34 122 75 65 45 132 82 164
91 49 15 71 33 241 199 169 165 221 207 237 192 14 -15 -22 -62 -143 -187 -74
-76 -134 -143 -134 -148 0 -6 9 -14 20 -17 15 -5 19 -12 14 -31 -4 -13 -1 -31
6 -39 21 -26 64 8 272 213 109 107 198 192 198 188 0 -24 -106 -186 -170 -261
-55 -64 -75 -102 -60 -120 15 -18 35 -10 93 38 27 21 50 37 53 34 2 -2 0 -16
-5 -31 -25 -64 19 -74 80 -18 23 20 64 48 93 62 46 22 55 32 86 96 43 88 56
104 86 104 25 0 56 36 93 110 57 111 86 44 34 -78 -14 -34 -23 -65 -20 -68 26
-26 101 63 189 223 56 103 118 178 140 170 18 -6 12 -32 -19 -80 -14 -22 -32
-56 -39 -74 -14 -31 -13 -35 10 -58 14 -14 31 -22 39 -19 8 3 49 69 91 147
l76 142 0 -892 0 -893 103 0 c105 0 167 11 185 33 7 8 14 290 21 792 11 763
16 906 29 904 4 0 21 -19 37 -42 51 -70 91 -59 80 21 l-6 43 20 -20 c11 -11
38 -25 60 -31 24 -6 48 -21 58 -37 10 -14 30 -39 45 -54 26 -28 29 -29 131
-29 123 0 131 -4 204 -108 68 -98 112 -141 168 -167 28 -12 70 -40 95 -62 74
-66 110 -79 110 -40 0 28 -13 47 -114 167 -61 73 -76 96 -63 98 19 4 32 -4
212 -117 155 -97 318 -181 351 -181 26 0 26 1 10 22 -46 63 -56 86 -56 125 0
23 5 45 11 48 5 4 34 -3 62 -15 41 -18 82 -25 197 -31 80 -5 205 -16 279 -25
150 -17 178 -14 191 21 5 14 13 25 17 26 5 0 36 1 70 2 44 2 67 7 80 20 16 16
16 18 0 34 -13 13 -45 18 -144 24 -218 14 -393 44 -393 69 0 17 67 30 203 39
77 5 143 13 150 20 6 6 16 26 21 43 9 27 25 40 101 79 95 49 118 70 97 91 -9
9 -26 9 -77 -1 -36 -7 -69 -11 -72 -7 -5 5 5 22 42 72 16 22 -2 27 -50 14 -55
-15 -65 -8 -42 28 36 54 59 118 63 172 7 76 -2 86 -73 80 -120 -10 -288 -5
-320 9 -42 17 -34 28 25 36 144 18 225 39 378 98 173 67 274 129 274 168 0 31
-41 23 -132 -24 -91 -48 -128 -60 -152 -51 -26 10 -2 31 71 64 35 16 63 35 63
42 0 19 -72 88 -91 88 -8 0 -35 -14 -59 -32 -49 -36 -49 -33 -9 58 25 59 21
84 -16 84 -60 0 -165 -83 -165 -131 0 -40 -15 -44 -40 -9 -12 16 -27 30 -35
30 -7 0 -27 -24 -43 -52 -17 -29 -53 -78 -80 -108 l-50 -55 19 94 c11 52 18
96 16 98 -2 2 -36 -33 -76 -77 -40 -44 -76 -80 -80 -80 -4 0 -7 38 -6 84 0 74
-3 87 -22 108 -13 13 -45 30 -72 37 -48 12 -192 88 -221 116 -12 13 -12 15 6
15 11 0 76 -15 145 -34 217 -59 254 -64 284 -42 30 22 6 40 -93 71 -132 40
-219 74 -234 92 -12 15 -8 16 42 10 30 -3 107 -16 170 -28 131 -24 303 -29
370 -10 72 19 101 33 97 45 -7 22 -79 29 -206 18 -141 -13 -171 -9 -171 20 0
31 89 64 220 83 181 25 268 52 300 90 26 32 -2 39 -88 22 -105 -22 -310 -43
-319 -33 -12 11 13 22 162 71 151 51 184 65 205 90 11 13 11 19 -3 32 -15 16
-21 16 -73 -1 -31 -10 -58 -15 -62 -12 -3 4 27 37 66 75 67 64 84 92 63 105
-9 6 -66 -22 -155 -77 -33 -20 -62 -35 -64 -32 -7 7 20 44 93 125 86 94 145
185 145 221 0 40 -10 59 -31 59 -19 0 -32 -15 -75 -85 l-25 -40 6 50 c18 159
19 165 2 165 -18 0 -73 -109 -121 -236 -15 -39 -33 -80 -41 -90 -16 -23 -14
-28 -43 106 -31 145 -78 257 -99 237 -4 -5 -8 -59 -9 -120 0 -97 -4 -119 -24
-162 l-24 -50 -7 115 c-8 138 -15 170 -39 170 -31 0 -44 -29 -44 -99 -1 -71
-14 -101 -45 -101 -24 0 -74 -56 -104 -116 -38 -75 -52 -79 -297 -79 -208 0
-265 6 -257 28 4 13 47 24 191 51 163 31 266 76 266 117 0 25 -14 24 -106 -6
-150 -49 -137 -28 38 61 141 72 224 138 212 168 -9 24 -32 17 -194 -58 -198
-93 -239 -104 -190 -50 24 25 44 40 220 171 130 97 172 137 164 157 -15 38
-82 12 -178 -70 -41 -35 -66 -43 -66 -22 0 6 24 55 54 107 63 113 74 148 49
158 -11 5 -26 -4 -48 -30 -18 -20 -37 -37 -43 -37 -6 0 -11 35 -13 85 -2 46
-9 89 -15 95 -13 13 -89 -4 -111 -24 -7 -6 -15 -53 -19 -111 -7 -112 -19 -165
-39 -165 -17 0 -31 38 -50 133 -18 90 -34 129 -49 124 -7 -3 -11 -72 -11 -213
0 -198 -1 -209 -19 -212 -28 -6 -46 25 -46 79 0 55 -25 94 -53 84 -9 -4 -17
-10 -17 -14 0 -3 -10 -19 -23 -35 -22 -27 -29 -29 -103 -31 -54 -2 -102 -11
-153 -29 -41 -14 -76 -25 -77 -23 -2 2 77 90 176 195 99 106 180 199 180 208
0 34 -67 -5 -210 -121 -91 -74 -148 -111 -156 -103 -6 7 38 63 140 174 92 101
136 158 136 177 0 23 -41 -3 -115 -74 -47 -45 -85 -77 -85 -72 0 6 25 50 57
99 109 172 147 254 117 254 -14 0 -34 -24 -168 -206 -41 -56 -80 -105 -87
-109 -10 -7 -11 18 -6 117 7 131 4 158 -19 158 -15 0 -43 -85 -45 -134 -1 -17
-7 2 -13 42 -14 81 -34 114 -56 87 -7 -8 -17 -57 -22 -108 -18 -184 -83 -385
-115 -353 -4 4 4 50 17 104 57 228 6 366 -61 169 -39 -112 -98 -181 -142 -164
-8 3 -27 43 -41 89 -40 122 -104 213 -136 193 -15 -9 -12 -41 10 -150 20 -95
20 -145 -2 -172 -18 -22 -27 -14 -30 25 -3 32 -8 40 -41 56 -36 17 -38 21 -36
60 3 61 1 73 -17 90 -28 29 -63 19 -109 -30 -27 -30 -45 -43 -49 -35 -4 6 -4
48 0 93 l7 81 -32 26 c-25 21 -34 37 -39 75 -14 95 -76 84 -76 -14 0 -93 -53
-46 -63 57 -7 66 -17 93 -38 93 -50 0 -44 -129 14 -297 23 -64 41 -126 41
-137 0 -70 -154 206 -185 334 -19 74 -31 100 -47 100 -7 0 -9 -26 -5 -82z"/>
</g>
</svg>
