<?xml version="1.0" standalone="no"?>
<!DOCTYPE svg PUBLIC "-//W3C//DTD SVG 20010904//EN"
 "http://www.w3.org/TR/2001/REC-SVG-20010904/DTD/svg10.dtd">
<svg version="1.0" xmlns="http://www.w3.org/2000/svg"
 width="800.000000pt" height="600.000000pt" viewBox="0 0 800.000000 600.000000"
 preserveAspectRatio="xMidYMid meet">

<g transform="translate(0.000000,600.000000) scale(0.100000,-0.100000)"
fill="#000000" stroke="none">
<path d="M3770 5991 c-907 -68 -1747 -558 -2255 -1316 -277 -414 -437 -845
-496 -1340 -18 -142 -18 -528 0 -670 93 -778 467 -1470 1061 -1968 427 -358
928 -579 1510 -668 210 -32 610 -32 820 0 574 87 1057 298 1487 649 597 488
970 1163 1079 1952 24 174 25 556 1 735 -128 965 -671 1774 -1511 2250 -326
184 -661 297 -1051 354 -159 23 -479 34 -645 22z m-271 -504 c6 -8 15 -43 20
-79 11 -79 25 -108 51 -108 17 0 20 7 20 44 0 28 7 52 19 67 25 31 41 17 48
-42 7 -54 19 -79 39 -79 24 0 33 -42 27 -128 -7 -98 1 -102 61 -37 47 50 66
55 97 24 18 -18 20 -29 15 -69 -7 -50 8 -80 39 -80 24 0 45 -31 45 -66 0 -42
14 -44 35 -4 19 37 19 99 0 170 -16 59 -20 150 -7 150 31 0 101 -116 132 -221
11 -37 26 -69 34 -72 21 -8 72 24 101 63 14 19 34 65 45 101 21 70 40 95 65
85 22 -8 20 -135 -5 -231 -23 -90 -26 -139 -8 -133 35 12 94 199 104 328 8 97
21 150 38 150 19 0 36 -52 37 -109 1 -81 15 -93 23 -21 8 72 29 130 47 130 9
0 10 -34 5 -140 -5 -87 -4 -140 2 -140 15 0 71 66 149 175 77 108 123 158 123
134 0 -24 -56 -135 -108 -211 -97 -144 -102 -181 -11 -84 51 55 126 113 134
104 10 -9 -54 -95 -131 -178 -113 -121 -144 -159 -144 -176 0 -22 42 3 157 94
122 97 154 119 187 132 54 20 24 -20 -140 -192 -91 -95 -174 -185 -185 -199
l-19 -27 93 30 c58 19 118 31 162 33 39 1 73 3 77 4 3 0 15 17 27 37 16 26 27
35 44 32 19 -3 23 -10 27 -64 5 -63 28 -104 57 -104 29 0 34 49 21 215 -8 110
-9 173 -2 196 10 34 10 34 23 11 6 -12 21 -64 32 -115 11 -51 27 -103 36 -116
13 -21 17 -22 30 -9 20 21 32 81 33 163 0 101 5 111 56 125 66 19 70 14 78
-86 3 -48 9 -90 12 -93 3 -3 23 14 44 37 44 47 60 53 60 20 0 -28 -26 -84 -74
-162 -34 -56 -47 -106 -27 -106 5 0 37 23 72 51 69 56 123 83 145 75 40 -15
-9 -67 -186 -193 -298 -214 -277 -241 61 -79 102 49 139 57 139 30 0 -30 -72
-82 -211 -154 -76 -39 -141 -75 -145 -81 -13 -22 8 -21 90 5 117 36 152 33
109 -10 -34 -34 -127 -64 -288 -93 -60 -11 -123 -25 -139 -31 -26 -10 -28 -12
-14 -26 38 -38 453 -39 511 -1 14 9 40 44 58 77 34 65 70 100 100 100 26 0 39
31 39 94 0 64 13 106 34 106 25 0 30 -20 36 -147 5 -122 13 -150 31 -123 24
38 39 120 39 212 0 62 4 98 11 98 23 0 69 -135 106 -315 5 -22 13 -39 18 -39
10 2 37 61 103 220 18 43 41 90 53 104 l20 25 -6 -109 c-8 -117 -1 -127 34
-58 10 20 29 46 41 57 22 20 22 20 37 0 31 -43 -4 -113 -130 -257 -131 -148
-136 -174 -19 -98 106 68 152 86 152 59 0 -6 -35 -47 -77 -90 -83 -85 -81 -93
12 -64 48 14 75 8 75 -16 0 -19 -69 -50 -217 -100 -83 -27 -157 -57 -165 -66
-12 -15 -3 -16 97 -10 61 4 146 14 190 23 110 21 119 22 123 2 7 -35 -80 -64
-293 -98 -138 -22 -207 -46 -224 -78 -21 -39 4 -44 182 -36 111 4 170 3 183
-4 17 -10 15 -12 -19 -27 -105 -44 -266 -44 -497 -1 -158 30 -160 30 -160 12
0 -19 81 -56 210 -96 105 -32 145 -54 133 -73 -11 -17 -143 1 -272 38 -69 19
-139 35 -155 35 l-31 -1 35 -30 c42 -37 188 -109 219 -109 56 0 95 -95 73
-180 -17 -68 -1 -61 101 47 31 34 57 56 57 48 0 -7 -7 -47 -16 -90 -9 -42 -14
-79 -11 -81 7 -7 126 144 145 183 9 18 19 33 23 33 4 0 19 -13 32 -30 32 -38
47 -38 47 -1 0 40 39 84 102 115 97 48 116 30 69 -70 -17 -36 -31 -68 -31 -70
0 -11 26 -1 52 21 41 35 73 32 115 -10 43 -43 40 -47 -50 -90 -67 -32 -81 -58
-34 -63 20 -2 63 14 132 49 100 50 135 57 135 25 0 -57 -388 -221 -580 -246
-111 -14 -130 -18 -130 -31 0 -36 157 -53 327 -35 l82 9 13 -28 c16 -36 -10
-140 -54 -207 -17 -27 -28 -52 -24 -55 3 -4 31 -2 61 4 30 5 55 7 55 4 0 -3
-14 -24 -30 -45 -36 -48 -28 -62 26 -47 47 13 114 14 114 3 0 -16 -36 -42
-106 -76 -73 -35 -97 -56 -108 -94 -12 -36 -42 -44 -186 -52 -128 -7 -180 -18
-180 -40 0 -28 151 -58 357 -69 154 -9 183 -15 183 -35 0 -25 -26 -36 -84 -36
-65 0 -75 -4 -92 -35 -14 -26 -77 -30 -194 -15 -47 6 -157 15 -246 20 -131 6
-170 12 -211 30 -64 27 -87 24 -91 -14 -4 -36 22 -108 48 -131 23 -21 26 -35
7 -35 -21 0 -167 74 -263 133 -49 30 -134 82 -189 116 -154 95 -165 80 -44
-60 88 -102 113 -143 105 -165 -5 -13 -9 -13 -33 0 -16 8 -50 34 -78 57 -27
23 -74 53 -103 66 -53 26 -78 52 -170 181 -59 82 -89 95 -197 86 l-85 -7 -63
67 c-41 42 -72 66 -86 66 -12 0 -33 11 -47 25 -14 14 -26 25 -28 25 -2 0 -3
-26 -2 -57 1 -52 -1 -58 -19 -58 -13 0 -31 17 -50 47 -33 52 -40 56 -50 31 -3
-10 -11 -331 -16 -713 -5 -382 -12 -759 -15 -837 l-6 -142 -30 -10 c-17 -6
-79 -14 -139 -17 l-109 -7 0 896 c0 494 -3 897 -7 897 -5 0 -41 -64 -82 -141
-41 -78 -80 -143 -87 -146 -21 -8 -54 16 -54 40 0 12 16 48 35 80 46 77 54
107 27 107 -30 0 -89 -74 -157 -195 -64 -115 -155 -224 -162 -193 -2 9 7 43
21 77 30 70 33 109 9 118 -16 6 -63 -40 -63 -63 0 -5 -13 -31 -29 -56 -24 -38
-36 -47 -63 -50 -30 -3 -36 -9 -68 -74 -44 -89 -53 -100 -104 -122 -22 -10
-63 -37 -89 -60 -27 -23 -53 -42 -58 -42 -17 0 -23 32 -12 61 6 16 8 31 4 33
-4 3 -32 -15 -62 -40 -57 -47 -89 -56 -89 -25 0 19 10 34 108 163 72 94 138
206 127 216 -3 4 -81 -70 -173 -164 -168 -171 -262 -254 -288 -254 -15 0 -17
10 -14 48 1 12 -6 25 -14 28 -9 3 -16 12 -16 20 0 8 55 69 123 137 126 126
154 164 143 192 -5 15 -9 15 -38 -2 -18 -10 -100 -86 -183 -168 -168 -169
-202 -197 -260 -215 -22 -7 -90 -46 -152 -87 -61 -41 -119 -73 -128 -71 -26 5
44 101 179 248 149 161 153 175 20 67 -110 -89 -219 -124 -243 -78 -12 22 -4
32 52 54 62 26 58 30 -81 78 -123 42 -226 106 -336 208 -46 43 -116 147 -116
173 0 35 31 17 109 -61 125 -126 244 -206 378 -252 58 -20 74 -12 50 24 -8 12
-68 79 -134 148 -65 70 -136 151 -156 181 -33 48 -37 58 -27 82 6 18 16 26 27
24 14 -3 47 -48 67 -93 3 -5 18 5 35 22 17 18 36 33 43 32 7 0 37 -34 66 -75
60 -83 173 -216 179 -210 2 2 -16 41 -41 87 -79 147 -122 322 -84 345 16 10
62 -47 83 -102 20 -54 36 -58 24 -6 -12 55 -4 74 33 70 17 -2 34 -10 38 -18
50 -110 72 -143 140 -212 112 -115 144 -99 74 37 -27 53 -189 311 -210 334 -2
2 -97 12 -211 22 -366 31 -527 84 -553 179 -7 26 -23 49 -47 67 -20 16 -52 43
-72 61 l-36 34 44 -6 c26 -2 97 -30 169 -65 114 -56 172 -74 172 -52 0 4 -15
38 -34 73 -26 50 -36 84 -41 140 -13 135 28 298 75 298 27 0 38 -27 49 -119
13 -121 92 -271 142 -271 17 0 19 7 19 58 0 31 -7 97 -15 145 -23 144 -5 181
93 182 72 1 99 11 107 37 11 32 -8 41 -109 48 -100 8 -116 13 -116 35 0 25 37
35 130 35 129 0 131 14 20 145 -33 39 -72 93 -87 120 -26 46 -28 58 -28 160 0
89 3 116 18 138 24 38 40 35 31 -5 -11 -51 -7 -124 11 -186 30 -100 80 -182
113 -182 15 0 14 15 -1 165 -2 18 3 20 45 17 43 -3 49 -1 57 21 20 52 161 135
245 144 38 5 45 3 50 -15 4 -12 2 -49 -4 -83 l-11 -61 35 -33 c30 -27 36 -40
36 -73 0 -48 31 -94 51 -75 7 7 13 40 15 74 3 70 13 88 38 64 15 -15 27 -52
55 -170 17 -71 41 -115 68 -128 40 -18 47 2 23 69 -12 32 -29 76 -36 97 -12
32 -12 43 -2 65 30 62 147 28 278 -80 112 -92 150 -114 150 -88 0 5 -40 52
-89 103 -114 121 -143 177 -91 177 31 0 69 22 76 43 9 29 -26 54 -84 62 -124
16 -181 29 -232 55 -30 15 -87 39 -127 53 -97 35 -163 69 -196 102 -28 29 -36
50 -14 41 156 -64 437 -120 437 -86 0 13 -66 56 -182 120 -142 78 -192 124
-157 145 5 4 39 -8 74 -26 36 -18 68 -30 72 -26 3 4 -15 56 -41 115 -87 196
-120 311 -102 359 10 24 50 -41 118 -191 28 -63 60 -124 70 -137 19 -24 19
-23 15 96 -5 160 -3 165 70 165 82 0 88 -6 89 -92 3 -136 4 -146 24 -169 l20
-24 29 32 c37 40 62 53 101 53 41 0 69 -16 80 -46 12 -31 22 -30 65 7 53 47
55 71 8 127 -98 116 -76 125 92 38 90 -47 165 -62 165 -33 0 7 -25 36 -56 65
-31 29 -52 57 -48 63 4 8 26 9 65 5 33 -4 59 -5 59 -3 0 2 -20 43 -44 90 -49
96 -82 208 -92 311 -10 101 13 83 52 -40 47 -150 146 -334 179 -334 8 0 15 4
15 8 0 12 -22 80 -54 169 -33 93 -48 191 -35 238 11 37 20 43 38 22z"/>
</g>
</svg>
